<?xml version="1.0" encoding="UTF-8"?>
<svg xmlns="http://www.w3.org/2000/svg" xmlns:xlink="http://www.w3.org/1999/xlink" width="375pt" height="375pt" viewBox="0 0 375 375" version="1.1">
<g id="surface11352">
<path style=" stroke:none;fill-rule:nonzero;fill:rgb(9.803922%,46.27451%,82.352941%);fill-opacity:1;" d="M 351.5625 273.4375 C 351.5625 290.695312 337.570312 304.6875 320.3125 304.6875 L 54.6875 304.6875 C 37.429688 304.6875 23.4375 290.695312 23.4375 273.4375 L 23.4375 101.5625 C 23.4375 84.304688 37.429688 70.3125 54.6875 70.3125 L 320.3125 70.3125 C 337.570312 70.3125 351.5625 84.304688 351.5625 101.5625 Z M 351.5625 273.4375 "/>
<path style=" stroke:none;fill-rule:nonzero;fill:rgb(100%,100%,100%);fill-opacity:1;" d="M 173.867188 156.25 L 157.359375 192.835938 L 140.929688 156.25 L 119.875 156.25 L 119.875 208.796875 L 96.414062 156.25 L 78.648438 156.25 L 54.6875 210.789062 L 68.867188 210.789062 L 74.109375 198.617188 L 100.921875 198.617188 L 106.25 210.789062 L 133.320312 210.789062 L 133.320312 170.28125 L 151.28125 210.789062 L 163.492188 210.789062 L 181.859375 170.984375 L 181.859375 210.789062 L 195.3125 210.789062 L 195.3125 156.25 Z M 79.179688 186.835938 L 87.195312 167.773438 L 95.523438 186.835938 Z M 295.960938 182.914062 L 320.3125 156.390625 L 302.992188 156.390625 L 287.414062 173.296875 L 272.34375 156.25 L 218.75 156.25 L 218.75 210.796875 L 270.585938 210.796875 L 286.929688 192.742188 L 302.867188 210.9375 L 320.132812 210.9375 Z M 263.5 199.34375 L 232.164062 199.34375 L 232.164062 188.554688 L 262.148438 188.554688 L 262.148438 178.21875 L 232.164062 178.21875 L 232.164062 168 L 265.242188 168.09375 L 278.46875 182.914062 Z M 263.5 199.34375 "/>
</g>
</svg>
