<svg xmlns="http://www.w3.org/2000/svg" width="24" height="24" viewBox="0 0 24 24">
  <g fill="none" fill-rule="evenodd">
    <rect width="24" height="24" fill="#FFF" opacity="0"/>
    <g fill="#000" fill-rule="nonzero" transform="translate(3 4)">
      <path d="M17.5175511,4.55183677 C17.0103906,4.05752315 16.3194022,3.79818047 15.612245,3.83673473 C15.5387756,3.83673473 15.4702042,3.86122452 15.4016327,3.87102044 C14.2569543,1.50260652 11.8582823,-0.00222495616 9.22775515,-0.00222495616 C6.59722799,-0.00222495616 4.19855598,1.50260652 3.05387758,3.87102044 C2.98040819,3.87102044 2.91183676,3.84163269 2.83836737,3.83673473 C1.53080659,3.72864162 0.35723912,4.63718074 0.134317664,5.93012518 C-0.0886037918,7.22306963 0.71296054,8.47214871 1.98122451,8.80816332 C2.1908872,8.86212736 2.34025013,9.0473374 2.34857145,9.26367352 L2.34857145,13.3240817 C2.35109747,14.2359524 3.08255178,14.9782915 3.99428574,14.9942858 L3.99428574,15.8612246 C3.99428574,16.4942105 4.50742224,17.007347 5.1404082,17.007347 L5.27755105,17.007347 C5.58152163,17.007347 5.87304236,16.8865952 6.08798201,16.6716555 C6.30292167,16.4567159 6.42367351,16.1651951 6.42367351,15.8612246 L6.42367351,14.9942858 L12.0661225,14.9942858 L12.0661225,15.8612246 C12.0661225,16.4942105 12.579259,17.007347 13.212245,17.007347 L13.3493878,17.007347 C13.6533584,17.007347 13.9448791,16.8865952 14.1598188,16.6716555 C14.3747584,16.4567159 14.4955103,16.1651951 14.4955103,15.8612246 L14.4955103,14.9942858 C15.4072442,14.9782915 16.1386986,14.2359524 16.1412246,13.3240817 L16.1412246,9.26367352 C16.1495459,9.0473374 16.2989088,8.86212736 16.5085715,8.80816332 C17.372159,8.54847227 18.0319495,7.84831188 18.2399576,6.97084083 C18.4479657,6.09336979 18.1726736,5.17154422 17.5175511,4.55183677 L17.5175511,4.55183677 Z M9.24489801,0.496326549 C11.6557501,0.498077719 13.8588615,1.86127664 14.9363266,4.01795922 C13.9059613,4.42037982 13.2288403,5.41465818 13.2318368,6.52081637 L13.2318368,9.45959189 L5.25795922,9.45959189 L5.25795922,6.52081637 C5.26036308,5.4163018 4.58590564,4.42308061 3.55836737,4.01795922 C4.63504245,1.86285275 6.83581102,0.499930613 9.24489801,0.496326549 Z M5.23346942,9.95428577 L13.3151021,9.95428577 C13.8090164,9.95696287 14.2087515,10.356698 14.2114286,10.8506123 L14.2114286,11.0269388 C14.2114286,11.5219663 13.8101296,11.9232654 13.3151021,11.9232654 L5.23346942,11.9232654 C4.74227173,11.9178968 4.34693881,11.5181659 4.34693881,11.0269388 L4.34693881,10.8506123 C4.34953762,10.3604695 4.74338474,9.96227045 5.23346942,9.95428577 Z M5.93387759,15.8612246 C5.93387759,16.2237037 5.64003019,16.5175511 5.27755105,16.5175511 L5.1404082,16.5175511 C4.77792906,16.5175511 4.48408166,16.2237037 4.48408166,15.8612246 L4.48408166,15.0187756 L5.95346943,15.0187756 L5.93387759,15.8612246 Z M14.0057144,15.8612246 C14.0057144,16.2237037 13.711867,16.5175511 13.3493878,16.5175511 L13.212245,16.5175511 C12.8497658,16.5175511 12.5559184,16.2237037 12.5559184,15.8612246 L12.5559184,15.0187756 L14.0253062,15.0187756 L14.0057144,15.8612246 Z M16.3665307,8.33795924 C15.9498688,8.45472244 15.6591765,8.83102967 15.6514286,9.26367352 L15.6514286,13.3240817 C15.6514314,13.6379959 15.5263952,13.938982 15.3039652,14.1604928 C15.0815353,14.3820036 14.780034,14.5057924 14.4661225,14.5045 L4.0236735,14.5045 C3.70976201,14.5057924 3.40826075,14.3820036 3.18583081,14.1604928 C2.96340087,13.938982 2.83836467,13.6379959 2.83836737,13.3240817 L2.83836737,9.26367352 C2.83061953,8.83102967 2.53992717,8.45472244 2.12326533,8.33795924 C1.43037483,8.12547767 0.901974264,7.56172621 0.734745627,6.85654521 C0.56751699,6.15136421 0.78650746,5.41037431 1.3102041,4.90938779 C1.71445723,4.51428481 2.26377705,4.30341688 2.82857145,4.32653065 C3.95269395,4.42183294 4.80985887,5.37328599 4.78775513,6.50122453 L4.78775513,9.53306128 C4.22763479,9.72794087 3.85354775,10.2575694 3.85714289,10.8506123 L3.85714289,11.0269388 C3.85714289,11.7924731 4.47773105,12.4130613 5.24326534,12.4130613 L13.324898,12.4130613 C14.0904323,12.4130613 14.7110205,11.7924731 14.7110205,11.0269388 L14.7110205,10.8506123 C14.709267,10.2439593 14.3118713,9.70946213 13.7314286,9.53306128 L13.7314286,6.52081637 C13.7093249,5.39287783 14.5664898,4.44142478 15.6906123,4.34612248 C16.2516641,4.31764551 16.8000472,4.519309 17.2089797,4.90448983 C17.7326763,5.40547635 17.9516668,6.14646625 17.7844381,6.85164725 C17.6172095,7.55682825 17.0888089,8.12057971 16.3959184,8.33306128 L16.3665307,8.33795924 Z"/>
      <path d="M8.40244903,4.93877555 C8.44916982,4.98565868 8.51258768,5.01208279 8.57877556,5.01224494 C8.64337211,5.01132484 8.70498851,4.98491782 8.75020413,4.93877555 L9.24000005,4.44897963 L9.72979597,4.93877555 C9.77501159,4.98491782 9.83662799,5.01132484 9.90122454,5.01224494 C9.96741242,5.01208279 10.0308303,4.98565868 10.0775511,4.93877555 C10.1714857,4.84188722 10.1714857,4.68790878 10.0775511,4.59102044 L9.58775515,4.10122452 L10.0775511,3.6114286 C10.1708922,3.51620162 10.1708922,3.36379844 10.0775511,3.26857146 C10.0315674,3.22220918 9.96897251,3.19613105 9.90367352,3.19613105 C9.83837453,3.19613105 9.77577963,3.22220918 9.72979597,3.26857146 L9.24000005,3.75836738 L8.75020413,3.26857146 C8.70422047,3.22220918 8.64162557,3.19613105 8.57632658,3.19613105 C8.51102759,3.19613105 8.44843268,3.22220918 8.40244903,3.26857146 C8.30910791,3.36379844 8.30910791,3.51620162 8.40244903,3.6114286 L8.89224495,4.10122452 L8.40244903,4.59102044 C8.30851435,4.68790878 8.30851435,4.84188722 8.40244903,4.93877555 Z"/>
    </g>
  </g>
</svg>
