<svg version="1.1" xmlns="http://www.w3.org/2000/svg" xmlns:xlink="http://www.w3.org/1999/xlink" width="192px" height="192px" viewBox="0,0,256,256"><g transform="translate(40,40) scale(0.6875,0.6875)"><g fill="#ff6d00" fill-rule="nonzero" stroke="none" stroke-width="1" stroke-linecap="butt" stroke-linejoin="miter" stroke-miterlimit="10" stroke-dasharray="" stroke-dashoffset="0" font-family="none" font-weight="none" font-size="none" text-anchor="none" style="mix-blend-mode: normal"><path d="M128,298.83317c-94.34855,0 -170.83317,-76.48462 -170.83317,-170.83317v0c0,-94.34855 76.48462,-170.83317 170.83317,-170.83317v0c94.34855,0 170.83317,76.48462 170.83317,170.83317v0c0,94.34855 -76.48462,170.83317 -170.83317,170.83317z" id="shape"></path></g><g fill="none" fill-rule="nonzero" stroke="none" stroke-width="1" stroke-linecap="butt" stroke-linejoin="miter" stroke-miterlimit="10" stroke-dasharray="" stroke-dashoffset="0" font-family="none" font-weight="none" font-size="none" text-anchor="none" style="mix-blend-mode: normal"><g transform="scale(1.33333,1.33333)"><g id="surface160665679"><path d="M46.07813,158.39844c-6.89062,0 -12.47656,-5.58594 -12.47656,-12.47656v-99.84375c0,-6.89062 5.58594,-12.47656 12.47656,-12.47656h99.84375c6.89063,0 12.47656,5.58594 12.47656,12.47656v99.84375c0,6.89063 -5.58594,12.47656 -12.47656,12.47656zM46.07813,158.39844" fill="#ffffff"></path><path d="M192,20.56641c0,-11.35156 -9.21484,-20.56641 -20.56641,-20.56641h-150.86719c-11.35156,0 -20.56641,9.21484 -20.56641,20.56641v150.85938c0,11.35938 9.21484,20.57422 20.56641,20.57422h150.85938c11.35938,0 20.57422,-9.21484 20.57422,-20.56641zM102.51172,107.60938v43.24609h-13.45703v-44.01562l-34.20703,-65.69531h15.98438c22.49609,42.12891 21.07813,43.375 25.41406,53.82422c5.27344,-11.57812 2.48828,-10.45703 25.97656,-53.82422h14.91406l-34.63281,66.47266h0.00781zM102.51172,107.60938" fill="#ff6d00"></path></g></g></g></g></svg>