<?xml version="1.0" encoding="UTF-8"?>
<svg xmlns="http://www.w3.org/2000/svg" xmlns:xlink="http://www.w3.org/1999/xlink" width="375pt" height="375pt" viewBox="0 0 375 375" version="1.1">
<g id="surface9869">
<path style=" stroke:none;fill-rule:nonzero;fill:rgb(100%,59.607843%,0%);fill-opacity:1;" d="M 250 78.125 C 189.59375 78.125 140.625 127.09375 140.625 187.5 C 140.625 247.90625 189.59375 296.875 250 296.875 C 310.40625 296.875 359.375 247.90625 359.375 187.5 C 359.375 127.09375 310.40625 78.125 250 78.125 Z M 250 78.125 "/>
<path style=" stroke:none;fill-rule:nonzero;fill:rgb(83.529412%,0%,0%);fill-opacity:1;" d="M 125 78.125 C 64.59375 78.125 15.625 127.09375 15.625 187.5 C 15.625 247.90625 64.59375 296.875 125 296.875 C 185.40625 296.875 234.375 247.90625 234.375 187.5 C 234.375 127.09375 185.40625 78.125 125 78.125 Z M 125 78.125 "/>
<path style=" stroke:none;fill-rule:nonzero;fill:rgb(100%,23.921569%,0%);fill-opacity:1;" d="M 140.625 187.5 C 140.625 224.648438 159.1875 257.421875 187.5 277.1875 C 215.8125 257.421875 234.375 224.648438 234.375 187.5 C 234.375 150.351562 215.8125 117.578125 187.5 97.8125 C 159.1875 117.578125 140.625 150.351562 140.625 187.5 Z M 140.625 187.5 "/>
</g>
</svg>
