<svg xmlns="http://www.w3.org/2000/svg" width="24" height="24" viewBox="0 0 24 24">
  <g fill="none" fill-rule="evenodd">
    <rect width="24" height="24" fill="#FFF" opacity="0"/>
    <g fill="#000" fill-rule="nonzero" transform="translate(2 3)">
      <path d="M17.6506123,3.50938778 L14.1632654,3.50938778 C14.160568,1.68458524 12.6819455,0.205962741 10.8571429,0.203265319 L8.77551025,0.203265319 C6.95070771,0.205962741 5.47208521,1.68458524 5.46938779,3.50938778 L1.98204083,3.50938778 C1.30498228,3.51208525 0.757551032,4.06171161 0.757551032,4.73877554 L0.757551032,16.204898 C0.757551032,16.881962 1.30498228,17.4315883 1.98204083,17.4342858 L17.6555103,17.4342858 C18.3325688,17.4315883 18.8800001,16.881962 18.8800001,16.204898 L18.8800001,4.73877554 C18.8800001,4.41272164 18.7504757,4.10002205 18.5199207,3.86946712 C18.2893658,3.63891219 17.9766662,3.50938778 17.6506123,3.50938778 Z M5.89551024,3.50938778 C5.89551024,2.74823899 6.19983203,2.01868518 6.74079846,1.48323882 C7.28176488,0.94779246 8.01440191,0.65092863 8.77551025,0.658775525 L10.8865307,0.658775525 C12.4589696,0.658773204 13.7344411,1.93205326 13.7371429,3.50448982 L5.9004082,3.50448982 L5.89551024,3.50938778 Z M1.97714287,3.9991837 L17.6506123,3.9991837 C18.075308,3.9991837 18.4195919,4.34346759 18.4195919,4.7681633 L18.4195919,4.91020411 C18.4008885,4.92396684 18.3843751,4.94048027 18.3706123,4.95918371 L15.3632654,9.73469393 C15.0408184,10.2516372 14.473749,10.5648226 13.8644899,10.5624624 L11.7534694,10.5624624 L11.7534694,10.1118368 C11.7534747,9.41854256 11.1928809,8.85575892 10.4995919,8.85306127 L9.13306127,8.85306127 C8.43977229,8.85575892 7.87917847,9.41854256 7.87918371,10.1118368 L7.87918371,10.5624624 L5.76326534,10.5624624 C5.16422641,10.5556572 4.6101118,10.243506 4.29387758,9.73469393 L1.26204083,4.92979595 C1.2482781,4.91109251 1.23176468,4.89457909 1.21306124,4.88081636 L1.21306124,4.73877554 C1.21306124,4.31407984 1.55734513,3.96979595 1.98204083,3.96979595 L1.97714287,3.9991837 Z M8.34448984,10.1265307 C8.34448984,9.68560455 8.70193108,9.32816332 9.14285719,9.32816332 L10.5093878,9.32816332 C10.9503139,9.32816332 11.3077552,9.68560455 11.3077552,10.1265307 L11.3077552,11.4881633 C11.3077552,11.9290894 10.9503139,12.2865307 10.5093878,12.2865307 L9.13306127,12.2865307 C8.69213516,12.2865307 8.33469392,11.9290894 8.33469392,11.4881633 L8.34448984,10.1265307 Z M17.6506123,16.9836736 L1.97714287,16.9836736 C1.55244717,16.9836736 1.20816328,16.6393897 1.20816328,16.214694 L1.20816328,5.71836738 L3.87755104,9.96489801 C4.28142984,10.6149915 4.99303264,11.0097087 5.75836738,11.0081633 L7.87428576,11.0081633 L7.87428576,11.4587756 C7.87428051,12.1520698 8.43487433,12.7148534 9.12816331,12.7175511 L10.4946939,12.7175511 C11.1879829,12.7148534 11.7485767,12.1520698 11.7485715,11.4587756 L11.7485715,11.0081633 L13.8595919,11.0081633 C14.6266675,11.0114098 15.3405112,10.6164781 15.7453062,9.96489801 L18.414694,5.71836738 L18.414694,16.204898 C18.414694,16.6276883 18.073394,16.9711847 17.6506123,16.9738776 L17.6506123,16.9836736 Z" />
    </g>
  </g>
</svg>
