<svg xmlns="http://www.w3.org/2000/svg" width="24" height="24" viewBox="0 0 24 24">
  <g fill="none" fill-rule="evenodd">
    <rect width="24" height="24" fill="#FFF" opacity="0"/>
    <g fill="#000" fill-rule="nonzero" transform="translate(6 2)">
      <path d="M5.81877556 15.4367234C5.38844981 15.4347517 4.99939283 15.6924474 4.83333837 16.0894488 4.66728391 16.4864502 4.75700449 16.944405 5.06059042 17.2493964 5.36417636 17.5543879 5.8217119 17.6462227 6.21947604 17.4820038 6.61724019 17.3177848 6.87673475 16.9299222 6.87673475 16.4995919 6.87673475 15.9144996 6.40386168 15.439431 5.81877556 15.4367234L5.81877556 15.4367234zM5.81877556 17.0726531C5.58655852 17.074638 5.37610106 16.9362816 5.28585676 16.7223081 5.19561245 16.5083346 5.24342477 16.2610517 5.40692675 16.0961402 5.57042873 15.9312287 5.81729209 15.8812956 6.03203233 15.9696999 6.24677256 16.0581043 6.38693883 16.2673664 6.38693883 16.4995919 6.38695032 16.8141819 6.1333541 17.0699643 5.81877556 17.0726531zM4.72653066 2.8979592L6.9061225 2.8979592C7.04137591 2.8979592 7.15102046 2.78831465 7.15102046 2.65306124 7.15102046 2.51780784 7.04137591 2.40816328 6.9061225 2.40816328L4.72653066 2.40816328C4.59127725 2.40816328 4.4816327 2.51780784 4.4816327 2.65306124 4.4816327 2.78831465 4.59127725 2.8979592 4.72653066 2.8979592z"/>
      <path d="M8.69387761,0.752653073 L2.92408167,0.752653073 C1.41688493,0.758026374 0.196393736,1.97851757 0.191020434,3.48571431 L0.191020434,16.1469389 C0.196407688,17.6533357 1.41767757,18.8724169 2.92408167,18.8751021 L8.69387761,18.8751021 C10.1994825,18.8724063 11.4193451,17.6525438 11.4220409,16.1469389 L11.4220409,3.48571431 C11.4193557,1.97931021 10.2002745,0.758040327 8.69387761,0.752653073 Z M0.680816354,4.48979595 L10.9665307,4.48979595 L10.9665307,14.3934695 L0.680816354,14.3934695 L0.680816354,4.48979595 Z M2.92408167,1.24244899 L8.69387761,1.24244899 C9.29052402,1.23984353 9.86362715,1.47503616 10.2864421,1.89601274 C10.709257,2.31698932 10.9469388,2.88906221 10.9469388,3.48571431 L10.9469388,4.00000002 L0.661224518,4.00000002 L0.661224518,3.48571431 C0.662514474,2.88775904 0.901964187,2.31495299 1.32661773,1.89397611 C1.75127127,1.47299922 2.32613779,1.23853939 2.92408167,1.24244899 Z M8.69387761,18.3853062 L2.92408167,18.3853062 C1.6870707,18.3853092 0.683517252,17.3839469 0.680816354,16.1469389 L0.680816354,14.8832654 L10.9665307,14.8832654 L10.9665307,16.1469389 C10.9652738,16.7461672 10.7243244,17.3199847 10.2973969,17.7404714 C9.87046948,18.1609582 9.29305579,18.3931577 8.69387761,18.3853062 Z"/>
    </g>
  </g>
</svg>
