<?xml version="1.0" encoding="UTF-8"?>
<svg xmlns="http://www.w3.org/2000/svg" xmlns:xlink="http://www.w3.org/1999/xlink" width="375pt" height="375pt" viewBox="0 0 375 375" version="1.1">
<g id="surface9862">
<path style=" stroke:none;fill-rule:nonzero;fill:rgb(8.235294%,39.607843%,75.294118%);fill-opacity:1;" d="M 351.5625 273.4375 C 351.5625 290.695312 337.570312 304.6875 320.3125 304.6875 L 54.6875 304.6875 C 37.429688 304.6875 23.4375 290.695312 23.4375 273.4375 L 23.4375 101.5625 C 23.4375 84.304688 37.429688 70.3125 54.6875 70.3125 L 320.3125 70.3125 C 337.570312 70.3125 351.5625 84.304688 351.5625 101.5625 Z M 351.5625 273.4375 "/>
<path style=" stroke:none;fill-rule:nonzero;fill:rgb(100%,100%,100%);fill-opacity:1;" d="M 118.640625 148.4375 L 98.125 209.625 C 98.125 209.625 92.914062 183.742188 92.398438 180.492188 C 80.71875 153.84375 63.484375 155.328125 63.484375 155.328125 L 83.796875 234.375 L 83.796875 234.359375 L 108.492188 234.359375 L 142.640625 148.4375 Z M 138.195312 234.375 L 160.625 234.375 L 174.1875 148.4375 L 151.476562 148.4375 Z M 296.9375 148.4375 L 273.335938 148.4375 L 236.539062 234.375 L 258.820312 234.375 L 263.414062 222.101562 L 291.507812 222.101562 L 293.898438 234.375 L 314.3125 234.375 Z M 269.632812 205.6875 L 281.84375 173.210938 L 288.234375 205.6875 Z M 206.007812 173.484375 C 206.007812 168.75 209.898438 165.226562 221.054688 165.226562 C 228.304688 165.226562 236.609375 170.492188 236.609375 170.492188 L 240.25 152.453125 C 240.25 152.453125 229.640625 148.429688 219.226562 148.429688 C 195.640625 148.429688 183.476562 159.710938 183.476562 173.992188 C 183.476562 199.820312 214.5625 196.28125 214.5625 209.546875 C 214.5625 211.820312 212.757812 217.078125 199.8125 217.078125 C 186.828125 217.078125 178.257812 212.320312 178.257812 212.320312 L 174.390625 229.632812 C 174.390625 229.632812 182.695312 234.367188 198.742188 234.367188 C 214.828125 234.367188 237.140625 222.335938 237.140625 205.054688 C 237.140625 184.265625 206.007812 182.765625 206.007812 173.484375 Z M 206.007812 173.484375 "/>
<path style=" stroke:none;fill-rule:nonzero;fill:rgb(100%,75.686275%,2.745098%);fill-opacity:1;" d="M 95.40625 194.882812 L 87.859375 157.789062 C 87.859375 157.789062 84.445312 149.75 75.570312 149.75 C 66.695312 149.75 40.882812 149.75 40.882812 149.75 C 40.882812 149.75 85.109375 162.8125 95.40625 194.882812 Z M 95.40625 194.882812 "/>
</g>
</svg>
